<?xml version="1.0" encoding="UTF-8"?>
<svg width="24" height="24" viewBox="0 0 24 24" fill="none" xmlns="http://www.w3.org/2000/svg">
  <path d="M22 10V6C22 4.89543 21.1046 4 20 4H4C2.89543 4 2 4.89543 2 6V10C3.10457 10 4 10.8954 4 12C4 13.1046 3.10457 14 2 14V18C2 19.1046 2.89543 20 4 20H20C21.1046 20 22 19.1046 22 18V14C20.8954 14 20 13.1046 20 12C20 10.8954 20.8954 10 22 10Z" stroke="currentColor" stroke-width="2" stroke-linecap="round" stroke-linejoin="round"/>
  <path d="M9 4V20" stroke="currentColor" stroke-width="2" stroke-linecap="round" stroke-linejoin="round" stroke-dasharray="4 4"/>
</svg>
